<svg width="158" height="40" viewBox="0 0 158 40" fill="none" xmlns="http://www.w3.org/2000/svg">
<g filter="url(#filter0_ddd_117_32)">
<rect x="4" y="2" width="150" height="32" rx="6" fill="#FAFAFA"/>
</g>
<path d="M51.8379 22H49.6172V20.6055H51.7559C52.3574 20.6055 52.8594 20.4961 53.2617 20.2773C53.6641 20.0586 53.9668 19.7285 54.1699 19.2871C54.373 18.8457 54.4746 18.293 54.4746 17.6289C54.4746 16.9648 54.373 16.4141 54.1699 15.9766C53.9668 15.5391 53.666 15.2109 53.2676 14.9922C52.873 14.7734 52.3809 14.6641 51.791 14.6641H49.5762V13.2695H51.8906C52.7617 13.2695 53.5078 13.4434 54.1289 13.791C54.7539 14.1387 55.2344 14.6387 55.5703 15.291C55.9062 15.9434 56.0742 16.7227 56.0742 17.6289C56.0742 18.5352 55.9062 19.3164 55.5703 19.9727C55.2344 20.625 54.75 21.127 54.1172 21.4785C53.4844 21.8262 52.7246 22 51.8379 22ZM50.4727 13.2695V22H48.8555V13.2695H50.4727ZM59.895 22.1289C59.2348 22.1289 58.6665 21.9922 58.1899 21.7188C57.7134 21.4414 57.3462 21.0508 57.0884 20.5469C56.8305 20.043 56.7016 19.4492 56.7016 18.7656C56.7016 18.0898 56.8286 17.498 57.0825 16.9902C57.3364 16.4785 57.6958 16.0801 58.1606 15.7949C58.6255 15.5098 59.1704 15.3672 59.7954 15.3672C60.2055 15.3672 60.5903 15.4336 60.9497 15.5664C61.313 15.6953 61.6333 15.8945 61.9106 16.1641C62.1919 16.4336 62.4126 16.7773 62.5727 17.1953C62.7329 17.6094 62.813 18.1035 62.813 18.6777V19.1582H57.4223V18.1094H62.0337L61.2954 18.4141C61.2954 18.0469 61.2388 17.7285 61.1255 17.459C61.0161 17.1855 60.8501 16.9727 60.6274 16.8203C60.4087 16.668 60.1352 16.5918 59.8071 16.5918C59.479 16.5918 59.1997 16.6699 58.9692 16.8262C58.7427 16.9785 58.5688 17.1836 58.4477 17.4414C58.3266 17.6992 58.2661 17.9883 58.2661 18.3086V19.041C58.2661 19.4473 58.3345 19.7891 58.4712 20.0664C58.6079 20.3438 58.8013 20.5547 59.0513 20.6992C59.3013 20.8398 59.5903 20.9102 59.9184 20.9102C60.1372 20.9102 60.3345 20.8789 60.5102 20.8164C60.6899 20.7539 60.8442 20.6602 60.9731 20.5352C61.102 20.4102 61.2016 20.2578 61.272 20.0781L62.7134 20.3652C62.6079 20.7207 62.4263 21.0312 62.1684 21.2969C61.9145 21.5586 61.5942 21.7637 61.2075 21.9121C60.8247 22.0566 60.3872 22.1289 59.895 22.1289ZM63.622 24.4492V15.4492H65.163V16.5391H65.2568C65.3349 16.3789 65.4462 16.209 65.5908 16.0293C65.7392 15.8457 65.9365 15.6895 66.1826 15.5605C66.4326 15.4316 66.749 15.3672 67.1318 15.3672C67.6357 15.3672 68.0888 15.4961 68.4912 15.7539C68.8974 16.0078 69.2197 16.3867 69.458 16.8906C69.7002 17.3906 69.8212 18.0059 69.8212 18.7363C69.8212 19.4551 69.7041 20.0664 69.4697 20.5703C69.2353 21.0742 68.915 21.459 68.5087 21.7246C68.1025 21.9863 67.6416 22.1172 67.1259 22.1172C66.7548 22.1172 66.4443 22.0547 66.1943 21.9297C65.9482 21.8008 65.7509 21.6484 65.6025 21.4727C65.4541 21.293 65.3388 21.123 65.2568 20.9629H65.1923V24.4492H63.622ZM66.6865 20.8281C67.0185 20.8281 67.2978 20.7383 67.5244 20.5586C67.7509 20.375 67.9209 20.125 68.0341 19.8086C68.1513 19.4922 68.2099 19.1328 68.2099 18.7305C68.2099 18.3281 68.1513 17.9707 68.0341 17.6582C67.9209 17.3457 67.7509 17.1016 67.5244 16.9258C67.3017 16.7461 67.0224 16.6562 66.6865 16.6562C66.3584 16.6562 66.081 16.7422 65.8545 16.9141C65.6279 17.0859 65.456 17.3262 65.3388 17.6348C65.2216 17.9434 65.163 18.3086 65.163 18.7305C65.163 19.1484 65.2216 19.5156 65.3388 19.832C65.4599 20.1445 65.6337 20.3887 65.8603 20.5645C66.0869 20.7402 66.3623 20.8281 66.6865 20.8281ZM72.476 22.041C71.851 22.041 71.3901 21.9004 71.0932 21.6191C70.8002 21.3379 70.6537 20.9199 70.6537 20.3652V13.2695H72.2241V20.1191C72.2241 20.3496 72.2612 20.5176 72.3354 20.623C72.4096 20.7246 72.5405 20.7754 72.728 20.7754C72.8256 20.7754 72.8998 20.7715 72.9506 20.7637C73.0053 20.7559 73.0541 20.7441 73.0971 20.7285L73.3608 21.9121C73.267 21.9434 73.142 21.9727 72.9858 22C72.8334 22.0273 72.6635 22.041 72.476 22.041ZM76.6425 22.1289C76.0019 22.1289 75.4452 21.9883 74.9726 21.707C74.5038 21.4258 74.1405 21.0312 73.8827 20.5234C73.6249 20.0156 73.496 19.4258 73.496 18.7539C73.496 18.0781 73.6249 17.4863 73.8827 16.9785C74.1405 16.4668 74.5038 16.0703 74.9726 15.7891C75.4452 15.5078 76.0019 15.3672 76.6425 15.3672C77.287 15.3672 77.8437 15.5078 78.3124 15.7891C78.7851 16.0703 79.1503 16.4668 79.4081 16.9785C79.6659 17.4863 79.7948 18.0781 79.7948 18.7539C79.7948 19.4258 79.6659 20.0156 79.4081 20.5234C79.1503 21.0312 78.7851 21.4258 78.3124 21.707C77.8437 21.9883 77.287 22.1289 76.6425 22.1289ZM76.6425 20.8633C76.9902 20.8633 77.2773 20.7695 77.5038 20.582C77.7343 20.3945 77.9062 20.1406 78.0195 19.8203C78.1327 19.5 78.1894 19.1445 78.1894 18.7539C78.1894 18.3555 78.1327 17.9961 78.0195 17.6758C77.9062 17.3555 77.7343 17.1035 77.5038 16.9199C77.2773 16.7324 76.9902 16.6387 76.6425 16.6387C76.2987 16.6387 76.0116 16.7324 75.7812 16.9199C75.5546 17.1035 75.3847 17.3555 75.2714 17.6758C75.1581 17.9922 75.1015 18.3516 75.1015 18.7539C75.1015 19.1445 75.1581 19.5 75.2714 19.8203C75.3847 20.1406 75.5546 20.3945 75.7812 20.582C76.0116 20.7695 76.2987 20.8633 76.6425 20.8633ZM80.3402 24.332L80.7094 23.1133L80.8969 23.166C81.1313 23.2246 81.3383 23.2402 81.518 23.2129C81.6977 23.1855 81.8461 23.1074 81.9633 22.9785C82.0844 22.8535 82.1664 22.6699 82.2094 22.4277L82.2973 22.0234L79.8246 15.4492H81.5063L82.684 18.9766C82.8246 19.3984 82.9379 19.8203 83.0238 20.2422C83.1137 20.6641 83.2133 21.0957 83.3227 21.5371H82.9184C83.0277 21.0957 83.1332 20.6641 83.2348 20.2422C83.3402 19.8164 83.4633 19.3945 83.6039 18.9766L84.8227 15.4492H86.4867L83.6801 22.8262C83.5473 23.1777 83.3793 23.4785 83.1762 23.7285C82.977 23.9785 82.7309 24.168 82.4379 24.2969C82.1449 24.4297 81.7953 24.4961 81.3891 24.4961C81.1703 24.4961 80.9672 24.4805 80.7797 24.4492C80.5922 24.418 80.4457 24.3789 80.3402 24.332ZM92.6107 15.4492V16.6738H88.8548V15.4492H92.6107ZM89.7806 13.8906H91.3509V20.1367C91.3509 20.3672 91.3998 20.5371 91.4974 20.6465C91.599 20.7559 91.765 20.8105 91.9955 20.8105C92.0619 20.8105 92.1537 20.8027 92.2709 20.7871C92.388 20.7676 92.4798 20.75 92.5462 20.7344L92.7923 21.9414C92.6166 21.9961 92.4388 22.0332 92.2591 22.0527C92.0834 22.0762 91.9115 22.0879 91.7435 22.0879C91.1107 22.0879 90.6244 21.9316 90.2845 21.6191C89.9486 21.3066 89.7806 20.8594 89.7806 20.2773V13.8906ZM96.0741 22.1289C95.4334 22.1289 94.8768 21.9883 94.4041 21.707C93.9354 21.4258 93.5721 21.0312 93.3143 20.5234C93.0565 20.0156 92.9276 19.4258 92.9276 18.7539C92.9276 18.0781 93.0565 17.4863 93.3143 16.9785C93.5721 16.4668 93.9354 16.0703 94.4041 15.7891C94.8768 15.5078 95.4334 15.3672 96.0741 15.3672C96.7186 15.3672 97.2752 15.5078 97.744 15.7891C98.2166 16.0703 98.5819 16.4668 98.8397 16.9785C99.0975 17.4863 99.2264 18.0781 99.2264 18.7539C99.2264 19.4258 99.0975 20.0156 98.8397 20.5234C98.5819 21.0312 98.2166 21.4258 97.744 21.707C97.2752 21.9883 96.7186 22.1289 96.0741 22.1289ZM96.0741 20.8633C96.4217 20.8633 96.7088 20.7695 96.9354 20.582C97.1659 20.3945 97.3377 20.1406 97.451 19.8203C97.5643 19.5 97.6209 19.1445 97.6209 18.7539C97.6209 18.3555 97.5643 17.9961 97.451 17.6758C97.3377 17.3555 97.1659 17.1035 96.9354 16.9199C96.7088 16.7324 96.4217 16.6387 96.0741 16.6387C95.7303 16.6387 95.4432 16.7324 95.2127 16.9199C94.9862 17.1035 94.8162 17.3555 94.703 17.6758C94.5897 17.9922 94.533 18.3516 94.533 18.7539C94.533 19.1445 94.5897 19.5 94.703 19.8203C94.8162 20.1406 94.9862 20.3945 95.2127 20.582C95.4432 20.7695 95.7303 20.8633 96.0741 20.8633ZM106.388 22.1172C105.622 22.1172 104.934 21.9414 104.325 21.5898C103.72 21.2344 103.241 20.7227 102.889 20.0547C102.538 19.3828 102.362 18.5781 102.362 17.6406C102.362 16.6953 102.538 15.8887 102.889 15.2207C103.241 14.5527 103.72 14.041 104.325 13.6855C104.934 13.3301 105.622 13.1523 106.388 13.1523C107.153 13.1523 107.839 13.3301 108.444 13.6855C109.05 14.041 109.528 14.5527 109.88 15.2207C110.231 15.8887 110.407 16.6953 110.407 17.6406C110.407 18.582 110.231 19.3867 109.88 20.0547C109.528 20.7227 109.05 21.2344 108.444 21.5898C107.839 21.9414 107.153 22.1172 106.388 22.1172ZM106.388 20.6758C106.856 20.6758 107.27 20.5605 107.63 20.3301C107.989 20.0957 108.27 19.752 108.473 19.2988C108.677 18.8457 108.778 18.293 108.778 17.6406C108.778 16.9805 108.677 16.4238 108.473 15.9707C108.27 15.5176 107.989 15.1758 107.63 14.9453C107.27 14.7109 106.856 14.5938 106.388 14.5938C105.919 14.5938 105.503 14.7109 105.139 14.9453C104.78 15.1797 104.499 15.5234 104.296 15.9766C104.093 16.4297 103.991 16.9844 103.991 17.6406C103.991 18.293 104.093 18.8457 104.296 19.2988C104.499 19.748 104.78 20.0898 105.139 20.3242C105.503 20.5586 105.919 20.6758 106.388 20.6758ZM110.806 22L113.355 18.0273L113.349 19.2461L110.935 15.4492H112.658L113.308 16.5449C113.503 16.8809 113.677 17.209 113.829 17.5293C113.982 17.8457 114.136 18.1543 114.292 18.4551H113.654C113.818 18.1582 113.972 17.8496 114.116 17.5293C114.261 17.209 114.435 16.8809 114.638 16.5449L115.312 15.4492H116.999L114.55 19.2754V18.0742L117.099 22H115.382L114.597 20.7051C114.402 20.373 114.226 20.0488 114.07 19.7324C113.917 19.416 113.761 19.1113 113.601 18.8184H114.245C114.089 19.1113 113.939 19.416 113.794 19.7324C113.654 20.0488 113.486 20.373 113.29 20.7051L112.505 22H110.806ZM117.633 24.332L118.002 23.1133L118.189 23.166C118.424 23.2246 118.631 23.2402 118.81 23.2129C118.99 23.1855 119.138 23.1074 119.256 22.9785C119.377 22.8535 119.459 22.6699 119.502 22.4277L119.59 22.0234L117.117 15.4492H118.799L119.976 18.9766C120.117 19.3984 120.23 19.8203 120.316 20.2422C120.406 20.6641 120.506 21.0957 120.615 21.5371H120.211C120.32 21.0957 120.426 20.6641 120.527 20.2422C120.633 19.8164 120.756 19.3945 120.896 18.9766L122.115 15.4492H123.779L120.972 22.8262C120.84 23.1777 120.672 23.4785 120.469 23.7285C120.269 23.9785 120.023 24.168 119.73 24.2969C119.437 24.4297 119.088 24.4961 118.681 24.4961C118.463 24.4961 118.26 24.4805 118.072 24.4492C117.885 24.418 117.738 24.3789 117.633 24.332ZM126.938 24.5898C126.406 24.5898 125.946 24.5215 125.555 24.3848C125.164 24.252 124.844 24.0703 124.594 23.8398C124.344 23.6094 124.166 23.3477 124.061 23.0547L125.403 22.5977C125.465 22.7227 125.557 22.8477 125.678 22.9727C125.799 23.0977 125.961 23.2012 126.164 23.2832C126.367 23.3652 126.623 23.4062 126.932 23.4062C127.401 23.4062 127.774 23.2969 128.051 23.0781C128.328 22.8633 128.467 22.5254 128.467 22.0645V20.8281H128.338C128.26 20.9922 128.149 21.1582 128.004 21.3262C127.86 21.4902 127.666 21.6289 127.424 21.7422C127.182 21.8516 126.873 21.9062 126.498 21.9062C125.998 21.9062 125.545 21.7891 125.139 21.5547C124.733 21.3164 124.408 20.9609 124.166 20.4883C123.928 20.0156 123.809 19.4219 123.809 18.707C123.809 17.9844 123.93 17.375 124.172 16.8789C124.414 16.3828 124.739 16.0078 125.145 15.7539C125.555 15.4961 126.01 15.3672 126.51 15.3672C126.893 15.3672 127.209 15.4316 127.459 15.5605C127.709 15.6855 127.908 15.8398 128.057 16.0234C128.209 16.207 128.324 16.3789 128.403 16.5391H128.479V15.4492H130.026V22.0059C130.026 22.5879 129.893 23.0703 129.627 23.4531C129.362 23.8359 128.994 24.1211 128.526 24.3086C128.061 24.4961 127.531 24.5898 126.938 24.5898ZM126.955 20.6699C127.28 20.6699 127.555 20.5918 127.781 20.4355C128.008 20.2793 128.18 20.0547 128.297 19.7617C128.414 19.4648 128.473 19.1094 128.473 18.6953C128.473 18.2852 128.414 17.9277 128.297 17.623C128.18 17.3184 128.008 17.082 127.781 16.9141C127.559 16.7422 127.283 16.6562 126.955 16.6562C126.619 16.6562 126.338 16.7461 126.112 16.9258C125.885 17.1016 125.713 17.3438 125.596 17.6523C125.483 17.957 125.426 18.3047 125.426 18.6953C125.426 19.0938 125.483 19.4414 125.596 19.7383C125.713 20.0352 125.885 20.2656 126.112 20.4297C126.342 20.5898 126.623 20.6699 126.955 20.6699ZM134.046 22.1289C133.385 22.1289 132.817 21.9922 132.341 21.7188C131.864 21.4414 131.497 21.0508 131.239 20.5469C130.981 20.043 130.852 19.4492 130.852 18.7656C130.852 18.0898 130.979 17.498 131.233 16.9902C131.487 16.4785 131.846 16.0801 132.311 15.7949C132.776 15.5098 133.321 15.3672 133.946 15.3672C134.356 15.3672 134.741 15.4336 135.1 15.5664C135.464 15.6953 135.784 15.8945 136.061 16.1641C136.342 16.4336 136.563 16.7773 136.723 17.1953C136.884 17.6094 136.964 18.1035 136.964 18.6777V19.1582H131.573V18.1094H136.184L135.446 18.4141C135.446 18.0469 135.389 17.7285 135.276 17.459C135.167 17.1855 135.001 16.9727 134.778 16.8203C134.559 16.668 134.286 16.5918 133.958 16.5918C133.63 16.5918 133.35 16.6699 133.12 16.8262C132.893 16.9785 132.719 17.1836 132.598 17.4414C132.477 17.6992 132.417 17.9883 132.417 18.3086V19.041C132.417 19.4473 132.485 19.7891 132.622 20.0664C132.759 20.3438 132.952 20.5547 133.202 20.6992C133.452 20.8398 133.741 20.9102 134.069 20.9102C134.288 20.9102 134.485 20.8789 134.661 20.8164C134.841 20.7539 134.995 20.6602 135.124 20.5352C135.253 20.4102 135.352 20.2578 135.423 20.0781L136.864 20.3652C136.759 20.7207 136.577 21.0312 136.319 21.2969C136.065 21.5586 135.745 21.7637 135.358 21.9121C134.975 22.0566 134.538 22.1289 134.046 22.1289ZM139.343 18.1738V22H137.773V15.4492H139.261L139.284 17.0723H139.167C139.347 16.5098 139.614 16.0859 139.97 15.8008C140.325 15.5117 140.773 15.3672 141.312 15.3672C141.761 15.3672 142.154 15.4648 142.489 15.6602C142.825 15.8516 143.085 16.1309 143.269 16.498C143.456 16.8652 143.55 17.3105 143.55 17.834V22H141.98V18.0859C141.98 17.6523 141.866 17.3145 141.64 17.0723C141.417 16.8262 141.109 16.7031 140.714 16.7031C140.452 16.7031 140.218 16.7617 140.011 16.8789C139.804 16.9922 139.64 17.1582 139.519 17.377C139.402 17.5957 139.343 17.8613 139.343 18.1738Z" fill="#333333"/>
<path d="M25.4118 8L16 13.098V22.902L25.4118 28L34.8235 22.902V13.098L25.4118 8Z" fill="white"/>
<path d="M25.4121 7.99902L16 13.0967V22.9014L25.4121 27.999L34.8232 22.9014V13.0967L25.4121 7.99902ZM36.7842 24.0693L25.4121 30.2285L14.0391 24.0693V11.9287L25.4121 5.76953L36.7842 11.9287V24.0693Z" fill="url(#paint0_radial_117_32)"/>
<path d="M25.4942 10.3535L32.6641 14.1257L30.2454 15.3926L27.5962 14.0537L25.3358 15.2775L27.8986 16.6452L25.4654 17.9122L18.353 14.1545L20.7862 12.8587L23.5505 14.2984L25.7965 13.089L23.0754 11.6493L25.4942 10.3535Z" fill="black"/>
<path d="M25.4942 17.9121L32.6641 21.6843L30.2454 22.9512L27.5962 21.6123L25.3358 22.8361L27.8986 24.2038L25.4654 25.4708L18.353 21.713L20.7862 20.4173L23.5505 21.857L25.7965 20.6476L23.0754 19.2079L25.4942 17.9121Z" fill="black"/>
<defs>
<filter id="filter0_ddd_117_32" x="0" y="0" width="158" height="40" filterUnits="userSpaceOnUse" color-interpolation-filters="sRGB">
<feFlood flood-opacity="0" result="BackgroundImageFix"/>
<feColorMatrix in="SourceAlpha" type="matrix" values="0 0 0 0 0 0 0 0 0 0 0 0 0 0 0 0 0 0 127 0" result="hardAlpha"/>
<feMorphology radius="1" operator="dilate" in="SourceAlpha" result="effect1_dropShadow_117_32"/>
<feOffset/>
<feComposite in2="hardAlpha" operator="out"/>
<feColorMatrix type="matrix" values="0 0 0 0 0 0 0 0 0 0 0 0 0 0 0 0 0 0 0.1 0"/>
<feBlend mode="normal" in2="BackgroundImageFix" result="effect1_dropShadow_117_32"/>
<feColorMatrix in="SourceAlpha" type="matrix" values="0 0 0 0 0 0 0 0 0 0 0 0 0 0 0 0 0 0 127 0" result="hardAlpha"/>
<feOffset dy="1"/>
<feGaussianBlur stdDeviation="1"/>
<feComposite in2="hardAlpha" operator="out"/>
<feColorMatrix type="matrix" values="0 0 0 0 0 0 0 0 0 0 0 0 0 0 0 0 0 0 0.1 0"/>
<feBlend mode="normal" in2="effect1_dropShadow_117_32" result="effect2_dropShadow_117_32"/>
<feColorMatrix in="SourceAlpha" type="matrix" values="0 0 0 0 0 0 0 0 0 0 0 0 0 0 0 0 0 0 127 0" result="hardAlpha"/>
<feOffset dy="2"/>
<feGaussianBlur stdDeviation="2"/>
<feComposite in2="hardAlpha" operator="out"/>
<feColorMatrix type="matrix" values="0 0 0 0 0 0 0 0 0 0 0 0 0 0 0 0 0 0 0.1 0"/>
<feBlend mode="normal" in2="effect2_dropShadow_117_32" result="effect3_dropShadow_117_32"/>
<feBlend mode="normal" in="SourceGraphic" in2="effect3_dropShadow_117_32" result="shape"/>
</filter>
<radialGradient id="paint0_radial_117_32" cx="0" cy="0" r="1" gradientUnits="userSpaceOnUse" gradientTransform="translate(25.4118 7.31275) rotate(90) scale(21.6667 36.2978)">
<stop stop-color="#01EF89"/>
<stop offset="1" stop-color="#01FAE4"/>
</radialGradient>
</defs>
</svg>
